<?xml version="1.0" encoding="UTF-8" standalone="no"?>
<svg
   id="finalDestinationRVFV"
   viewBox="0 0 60 60"
   version="1.1"
   sodipodi:docname="RVFV.svg"
   inkscape:version="1.2 (dc2aedaf03, 2022-05-15)"
   xmlns:inkscape="http://www.inkscape.org/namespaces/inkscape"
   xmlns:sodipodi="http://sodipodi.sourceforge.net/DTD/sodipodi-0.dtd"
   xmlns="http://www.w3.org/2000/svg"
   xmlns:svg="http://www.w3.org/2000/svg">
  <defs
     id="defs19" />
  <sodipodi:namedview
     id="namedview17"
     pagecolor="#505050"
     bordercolor="#eeeeee"
     borderopacity="1"
     inkscape:showpageshadow="0"
     inkscape:pageopacity="0"
     inkscape:pagecheckerboard="0"
     inkscape:deskcolor="#505050"
     showgrid="false"
     inkscape:zoom="9.8641396"
     inkscape:cx="19.717888"
     inkscape:cy="34.36691"
     inkscape:window-width="1920"
     inkscape:window-height="1017"
     inkscape:window-x="-8"
     inkscape:window-y="-8"
     inkscape:window-maximized="1"
     inkscape:current-layer="finalDestinationRVFV" />
  <g
     id="g14">
    <circle
       cx="22.5"
       cy="35.5"
       r="3"
       style="fill: rgb(255, 255, 255);"
       id="circle2" />
    <polygon
       points="36.5 43.5 38.5 46.5 21.5 46.5 23.5 43.5 36.5 43.5"
       style="fill: rgb(255, 255, 255);"
       id="polygon4" />
    <circle
       cx="36.5"
       cy="35.5"
       r="3"
       style="fill: rgb(255, 255, 255);"
       id="circle6" />
    <path
       d="M19.5,21.59V18.24a3.73428,3.73428,0,0,1,3.74-3.74H35.76a3.73428,3.73428,0,0,1,3.74,3.74v3.35a3.90927,3.90927,0,0,1-3.91,3.91H23.41A3.90927,3.90927,0,0,1,19.5,21.59Z"
       style="fill: rgb(255, 255, 255);"
       id="path8" />
    <path
       d="M30.5.5a29,29,0,1,0,29,29A28.99518,28.99518,0,0,0,30.5.5Zm10.62344,50-1.42372-2H20.13945l-1.36056,2H14.5l6.76-8.7a8.03977,8.03977,0,0,1-4.76-7.33V13.44A4.9378,4.9378,0,0,1,21.44,8.5H37.56a4.9378,4.9378,0,0,1,4.94,4.94V34.47a8.029,8.029,0,0,1-4.19,7.05L45.5,50.5Z"
       style="fill: rgb(255, 255, 255);"
       id="path10" />
    <rect
       width="60"
       height="60"
       style="display:inline;fill:none"
       id="rect12"
       x="0"
       y="0" />
  </g>
</svg>